<svg width="1000" height="1000" viewBox="0 0 1000 1000" fill="none" xmlns="http://www.w3.org/2000/svg">
<g clip-path="url(#clip0)">
<rect width="1000" height="1000" fill="url(#paint0_linear)"/>
<ellipse cx="59" cy="868.5" rx="676" ry="368.5" fill="url(#paint1_linear)"/>
<ellipse cx="640" cy="999.5" rx="676" ry="368.5" fill="url(#paint2_linear)"/>
<path d="M423 142L427.051 152.949L438 157L427.051 161.051L423 172L418.949 161.051L408 157L418.949 152.949L423 142Z" fill="white"/>
<path d="M574 92L575.621 96.3795L580 98L575.621 99.6205L574 104L572.379 99.6205L568 98L572.379 96.3795L574 92Z" fill="white"/>
<path d="M751 203L755.321 214.679L767 219L755.321 223.321L751 235L746.679 223.321L735 219L746.679 214.679L751 203Z" fill="white"/>
<path d="M968 252L972.321 263.679L984 268L972.321 272.321L968 284L963.679 272.321L952 268L963.679 263.679L968 252Z" fill="white"/>
<path d="M96 252L100.321 263.679L112 268L100.321 272.321L96 284L91.6785 272.321L80 268L91.6785 263.679L96 252Z" fill="white"/>
<path d="M230 102L232.701 109.299L240 112L232.701 114.701L230 122L227.299 114.701L220 112L227.299 109.299L230 102Z" fill="white"/>
<path d="M113 24L117.592 36.4085L130 41L117.592 45.5915L113 58L108.408 45.5915L96 41L108.408 36.4085L113 24Z" fill="white"/>
<path d="M904 -8L908.321 3.67855L920 8L908.321 12.3215L904 24L899.679 12.3215L888 8L899.679 3.67855L904 -8Z" fill="white"/>
</g>
<defs>
<linearGradient id="paint0_linear" x1="500" y1="0" x2="500" y2="693" gradientUnits="userSpaceOnUse">
<stop stop-color="#262A93"/>
<stop offset="1" stop-color="#9482A6"/>
</linearGradient>
<linearGradient id="paint1_linear" x1="59" y1="500" x2="59" y2="869" gradientUnits="userSpaceOnUse">
<stop stop-color="#445E7C"/>
<stop offset="1" stop-color="#081F3A"/>
</linearGradient>
<linearGradient id="paint2_linear" x1="640" y1="631" x2="640" y2="1000" gradientUnits="userSpaceOnUse">
<stop stop-color="#445E7C"/>
<stop offset="1" stop-color="#081F3A"/>
</linearGradient>
<clipPath id="clip0">
<rect width="1000" height="1000" fill="white"/>
</clipPath>
</defs>
</svg>
